<?xml version="1.0" encoding="iso-8859-1"?>
<!-- Generator: Adobe Illustrator 16.0.0, SVG Export Plug-In . SVG Version: 6.00 Build 0)  -->
<!DOCTYPE svg PUBLIC "-//W3C//DTD SVG 1.1//EN" "http://www.w3.org/Graphics/SVG/1.1/DTD/svg11.dtd">
<svg version="1.1" id="Capa_1" xmlns="http://www.w3.org/2000/svg" xmlns:xlink="http://www.w3.org/1999/xlink" x="0px" y="0px"
	 width="533.333px" height="533.333px" viewBox="0 0 533.333 533.333" style="enable-background:new 0 0 533.333 533.333;"
	 xml:space="preserve">
<g>
	<path d="M444.452,0H88.88C39.794,0,0,39.801,0,88.896v355.54c0,49.097,39.794,88.896,88.88,88.896h355.57
		c49.089,0,88.88-39.8,88.88-88.896l0.003-355.54C533.333,39.801,493.54,0,444.452,0z M466.667,337.551
		c0,71.35-58.065,129.116-129.918,129.116h-140.01c-71.8,0-130.072-57.767-130.072-129.116V195.833
		c0.05-71.354,58.271-129.167,130.072-129.167h65.556c71.85,0,129.374,53.646,129.372,125c0.938,13.383,12.98,25,26.715,25h0.465
		h21.957c14.362,0,25.863,15.07,25.863,29.33V337.551z M366.667,333.333c0,18.333-15,33.334-33.333,33.334H200
		c-18.333,0-33.333-15.001-33.333-33.334l0,0C166.667,315,181.667,300,200,300h133.333C351.667,300,366.667,315,366.667,333.333
		L366.667,333.333z M300,200c0,18.333-15,33.333-33.333,33.333H200c-18.333,0-33.333-15-33.333-33.333l0,0
		c0-18.333,15-33.333,33.333-33.333h66.667C285,166.667,300,181.667,300,200L300,200z"/>
</g>
<g>
</g>
<g>
</g>
<g>
</g>
<g>
</g>
<g>
</g>
<g>
</g>
<g>
</g>
<g>
</g>
<g>
</g>
<g>
</g>
<g>
</g>
<g>
</g>
<g>
</g>
<g>
</g>
<g>
</g>
</svg>
